<svg xmlns="http://www.w3.org/2000/svg" width="200" height="200" viewBox="0 0 200 200" fill="none" aria-hidden="true">
  <g fill="#FFFFFF">
    <rect x="100" y="10" width="20" height="30"/>
    <rect x="60" y="10" width="20" height="30"/>
    <rect x="140" y="10" width="20" height="30"/>
    <rect x="10" y="10" width="20" height="30"/>
    <rect x="160" y="40" width="30" height="20"/>
    <rect x="10" y="40" width="50" height="20"/>
    <rect x="100" y="40" width="40" height="20"/>
    <rect x="60" y="60" width="20" height="20"/>
    <rect x="140" y="60" width="20" height="20"/>
    <rect x="10" y="60" width="20" height="20"/>
    <rect x="140" y="80" width="50" height="20"/>
    <rect x="10" y="80" width="90" height="20"/>
    <rect x="10" y="100" width="40" height="20"/>
    <rect x="80" y="100" width="60" height="20"/>
    <rect x="140" y="120" width="50" height="20"/>
    <rect x="10" y="120" width="90" height="20"/>
    <rect x="60" y="140" width="20" height="30"/>
    <rect x="120" y="140" width="20" height="30"/>
    <rect x="10" y="140" width="20" height="30"/>
    <rect x="10" y="170" width="180" height="20"/>
  </g>
</svg>
